<svg xmlns="http://www.w3.org/2000/svg" width="240" height="240" viewBox="0 0 24 24" fill="#e5252a" stroke-width="2"  class="feather feather-file-text">
    <style>
        .title {
            font: 6px monospace;
            font-weight: 700;
        }
    </style>
    <path d="M14 2H6a2 2 0 0 0-2 2v16a2 2 0 0 0 2 2h12a2 2 0 0 0 2-2V8z"></path>
    <polyline fill="#ed676a" points="14 2 14 8 20 8"></polyline>
    <line x1="12.25" y1="2.25" y2="2.25" x2="13.25" stroke-width="1" stroke="white" />
    <line x1="12.25" y1="4.25" y2="4.25" x2="13.25" stroke-width="1" stroke="white" />
    <line x1="12.25" y1="6.25" y2="6.25" x2="13.25" stroke-width="1" stroke="white" />
    <line x1="12.25" y1="8.25" y2="8.25" x2="13.25" stroke-width="1" stroke="white" />
    <line x1="12.25" y1="10.25" y2="10.25" x2="13.25" stroke-width="1" stroke="white" />
    
    <line x1="11.25" y1="3.25" y2="3.25" x2="12.25" stroke-width="1" stroke="white" />
    <line x1="11.25" y1="5.25" y2="5.25" x2="12.25" stroke-width="1" stroke="white" />
    <line x1="11.25" y1="7.25" y2="7.25" x2="12.25" stroke-width="1" stroke="white" />
    <line x1="11.25" y1="9.25" y2="9.25" x2="12.25" stroke-width="1" stroke="white" />
    <line x1="11.25" y1="11.25" y2="11.25" x2="12.25" stroke-width="1" stroke="white" />
    <text x="7.2" y="20" class="title" fill="white">ZIP</text>
</svg>